# xmcd
#
# Track frame offsets: 
#        150
#        13317
#        26605
#        39230
#        52945
#        66455
#        79425
#        93797
#        108780
#        121850
#        134705
#        147590
#        162585
#        177332
#        191580
#        205387
#        220340
#        235045
#        249235
#        263492
#        277597
#        291162
#        304702
#        318465
#        333077
#        346972
#
# Disc length: 4799 seconds
#
# Revision: 0
# Processed by: cddbd v1.5.2PL0 Copyright (c) Steve Scherf et al.
# Submitted via: ExactAudioCopy v0.95b4
#
DISCID=7a12bd1a
DTITLE=Uncle Dave Macon - Keep my skillet good and greasy [CD6]
DYEAR=2004
DGENRE=Folk
TTITLE0=For goodness sakes don't say I told you
TTITLE1=We need a change in business all around
TTITLE2=Susie Lee
TTITLE3=Mister Johnson
TTITLE4=Farm relief
TTITLE5=Uncle Dave's travels, part 3 (In and around Bashville)
TTITLE6=Since baby's learned to talk
TTITLE7=Uncle Dave's travels, part 4 (Visit at the old maid's)
TTITLE8=Over the mountain
TTITLE9=Hush little baby don't you cry
TTITLE10=Uncle dave's travels, part 1 (Misery in Arkansas)
TTITLE11=Uncle dave's travels, part 2 (Around Louisville, Ky.)
TTITLE12=Tennessee red fox chase
TTITLE13=The wreck of the Tennessee gravy train
TTITLE14=Oh baby, you done me wrong
TTITLE15=She's got the money too
TTITLE16=Oh lovin' babe
TTITLE17=Mysteries of the world
TTITLE18=Come on buddie, don't you want to go
TTITLE19=Go on, Nora Lee
TTITLE20=Was you there when they took my Lord away
TTITLE21=Thank god for everything
TTITLE22=When the train comes along
TTITLE23=Tennessee tornado
TTITLE24=Don't get weary children
TTITLE25=He's up with the angels now
EXTD=
EXTT0=
EXTT1=
EXTT2=
EXTT3=
EXTT4=
EXTT5=
EXTT6=
EXTT7=
EXTT8=
EXTT9=
EXTT10=
EXTT11=
EXTT12=
EXTT13=
EXTT14=
EXTT15=
EXTT16=
EXTT17=
EXTT18=
EXTT19=
EXTT20=
EXTT21=
EXTT22=
EXTT23=
EXTT24=
EXTT25=
PLAYORDER=
